<svg width="190" height="125" viewBox="0 0 178 105" fill="none" xmlns="http://www.w3.org/2000/svg">
<circle cx="127" cy="51" r="51" fill="#D61C4E"/>
<circle cx="51" cy="51" r="51" fill="#293462"/>
<path d="M45.68 71.77C43.16 71.77 40.8967 71.28 38.89 70.3C36.8833 69.32 35.32 67.99 34.2 66.31C33.08 64.63 32.52 62.74 32.52 60.64C32.52 58.12 33.1733 56.1367 34.48 54.69C35.7867 53.1967 37.91 52.1467 40.85 51.54C43.79 50.8867 47.6867 50.56 52.54 50.56H56.25V56.02H52.61C50.23 56.02 48.2933 56.16 46.8 56.44C45.3533 56.6733 44.3033 57.0933 43.65 57.7C43.0433 58.3067 42.74 59.1467 42.74 60.22C42.74 61.5267 43.1833 62.6 44.07 63.44C45.0033 64.28 46.3333 64.7 48.06 64.7C49.4133 64.7 50.6033 64.3967 51.63 63.79C52.7033 63.1367 53.5433 62.2733 54.15 61.2C54.7567 60.08 55.06 58.82 55.06 57.42V49.37C55.06 47.3167 54.5933 45.87 53.66 45.03C52.7267 44.1433 51.14 43.7 48.9 43.7C47.64 43.7 46.2633 43.8633 44.77 44.19C43.3233 44.47 41.7133 44.96 39.94 45.66C38.9133 46.1267 38.0033 46.2433 37.21 46.01C36.4167 45.73 35.81 45.2633 35.39 44.61C34.97 43.91 34.76 43.1633 34.76 42.37C34.76 41.53 34.9933 40.7367 35.46 39.99C35.9267 39.1967 36.6967 38.6133 37.77 38.24C39.9633 37.3533 42.0167 36.7467 43.93 36.42C45.89 36.0933 47.6867 35.93 49.32 35.93C52.9133 35.93 55.8533 36.4667 58.14 37.54C60.4733 38.5667 62.2233 40.1767 63.39 42.37C64.5567 44.5167 65.14 47.2933 65.14 50.7V66.24C65.14 67.9667 64.72 69.2967 63.88 70.23C63.04 71.1633 61.8267 71.63 60.24 71.63C58.6533 71.63 57.4167 71.1633 56.53 70.23C55.69 69.2967 55.27 67.9667 55.27 66.24V63.65L55.76 64.07C55.48 65.6567 54.8733 67.0333 53.94 68.2C53.0533 69.32 51.91 70.2067 50.51 70.86C49.11 71.4667 47.5 71.77 45.68 71.77Z" fill="white"/>
<path d="M138.42 51.66C141.313 52.3133 143.6 53.76 145.28 56C147.007 58.1933 147.87 60.7133 147.87 63.56C147.87 67.76 146.423 71.05 143.53 73.43C140.637 75.81 136.577 77 131.35 77H106.92V27.65H130.58C135.62 27.65 139.563 28.77 142.41 31.01C145.303 33.25 146.75 36.4 146.75 40.46C146.75 43.3533 145.98 45.78 144.44 47.74C142.947 49.6533 140.94 50.96 138.42 51.66ZM120.64 47.25H127.57C131.023 47.25 132.75 45.8267 132.75 42.98C132.75 40.04 131.023 38.57 127.57 38.57H120.64V47.25ZM128.62 65.94C132.073 65.94 133.8 64.4933 133.8 61.6C133.8 60.1067 133.333 58.9633 132.4 58.17C131.513 57.3767 130.23 56.98 128.55 56.98H120.64V65.94H128.62Z" fill="white"/>
</svg>
