<svg width="178" height="108" viewBox="0 0 178 108" fill="none" xmlns="http://www.w3.org/2000/svg">
<circle cx="127" cy="54" r="51" fill="#D61C4E"/>
<circle cx="51" cy="54" r="51" fill="#293462"/>
<path d="M138.42 54.66C141.313 55.3133 143.6 56.76 145.28 59C147.007 61.1933 147.87 63.7133 147.87 66.56C147.87 70.76 146.423 74.05 143.53 76.43C140.637 78.81 136.577 80 131.35 80H106.92V30.65H130.58C135.62 30.65 139.563 31.77 142.41 34.01C145.303 36.25 146.75 39.4 146.75 43.46C146.75 46.3533 145.98 48.78 144.44 50.74C142.947 52.6533 140.94 53.96 138.42 54.66ZM120.64 50.25H127.57C131.023 50.25 132.75 48.8267 132.75 45.98C132.75 43.04 131.023 41.57 127.57 41.57H120.64V50.25ZM128.62 68.94C132.073 68.94 133.8 67.4933 133.8 64.6C133.8 63.1067 133.333 61.9633 132.4 61.17C131.513 60.3767 130.23 59.98 128.55 59.98H120.64V68.94H128.62Z" fill="white"/>
<g opacity="0.5">
<path d="M74.5313 38.2625L72.0281 37.4281C72.0281 36.8719 72.3063 36.3156 72.3063 35.7594C74.2531 26.5812 72.8625 19.0719 68.6906 16.5687C64.5188 14.3437 57.8438 16.5687 51.1688 22.4094C50.6125 22.9656 49.7781 23.5219 49.2219 24.0781C48.6656 23.8 48.3875 23.2437 47.8313 22.9656C41.1563 16.8469 34.2031 14.3437 30.0313 16.8469C25.8594 19.0719 24.7469 26.3031 26.4156 34.925C26.6938 35.7594 26.6938 36.5937 26.9719 37.4281C25.8594 37.7062 25.025 37.9844 24.1906 38.2625C15.8469 41.0438 10.5625 45.7719 10.5625 50.2219C10.5625 54.95 16.125 59.9562 24.7469 62.7375C25.3031 63.0156 26.1375 63.2937 26.9719 63.2937C26.6938 64.1281 26.4156 65.2406 26.4156 66.075C24.7469 74.6969 26.1375 81.3719 30.0313 83.875C34.2031 86.3781 41.1563 83.875 48.1094 77.7562C48.6656 77.2 49.2219 76.6437 49.7781 76.3656C50.3344 76.9219 51.1688 77.7562 52.0031 78.3125C58.6781 84.1531 65.075 86.3781 69.2469 83.875C73.4188 81.3719 74.8094 74.1406 73.1406 65.2406C73.1406 64.6844 72.8625 63.85 72.5844 63.0156C73.1406 62.7375 73.6969 62.7375 73.975 62.4594C82.875 59.4 88.7156 54.6719 88.7156 49.9438C88.4375 45.7719 82.875 41.3219 74.5313 38.2625ZM53.6719 25.1906C59.5125 20.1844 64.7969 18.2375 67.3 19.6281C69.8031 21.0187 70.9156 27.1375 69.2469 35.2031C69.2469 35.7594 68.9688 36.3156 68.9688 36.8719C65.6313 36.0375 62.0156 35.4812 58.6781 35.2031C56.7313 32.4219 54.5063 29.6406 52.0031 26.8594L53.6719 25.1906ZM33.6469 54.3937C34.4813 55.7844 35.0375 57.175 35.8719 58.5656C36.7063 59.9562 37.5406 61.3469 38.375 62.4594C35.8719 62.1812 33.6469 61.9031 31.1438 61.3469C31.7 59.1219 32.5344 56.8969 33.6469 54.3937ZM33.6469 46.6063C32.5344 44.3813 31.9781 42.1562 31.1438 39.9312C33.3688 39.375 35.8719 39.0969 38.0969 38.8188C37.2625 40.2094 36.4281 41.3219 35.5938 42.7125C35.0375 43.825 34.2031 45.2156 33.6469 46.6063ZM35.3156 50.5C36.4281 48.275 37.5406 46.3281 38.6531 44.1031C39.7656 42.1562 41.1563 39.9312 42.5469 37.9844C44.7719 37.7063 47.275 37.7062 49.7781 37.7062C52.2813 37.7062 54.5063 37.7063 57.0094 37.9844C58.4 39.9312 59.5125 41.8781 60.625 44.1031C61.7375 46.05 62.85 48.275 63.9625 50.5C62.85 52.725 61.7375 54.6719 60.625 56.8969C59.5125 58.8437 58.1219 61.0687 57.0094 63.0156C54.7844 63.2937 52.2813 63.2937 49.7781 63.2937C47.275 63.2937 45.05 63.2937 42.825 63.0156C41.4344 61.0687 40.3219 59.1219 38.9313 56.8969C37.5406 54.6719 36.4281 52.725 35.3156 50.5ZM63.1281 58.5656C63.9625 57.175 64.7969 55.7844 65.3531 54.3937C66.4656 56.6187 67.3 58.8437 67.8563 61.3469C65.3531 61.9031 63.1281 62.1812 60.625 62.4594C61.7375 61.0687 62.5719 59.6781 63.1281 58.5656ZM65.3531 46.6063C64.5188 45.2156 63.9625 43.825 63.1281 42.4344C62.2938 41.0438 61.4594 39.9312 60.9031 38.5406C63.4063 38.8187 65.6313 39.375 68.1344 39.6531C67.3 42.1563 66.4656 44.3813 65.3531 46.6063ZM49.5 29.0844C51.1688 30.7531 52.5594 32.7 53.95 34.6469C50.8906 34.3687 47.8313 34.3687 44.7719 34.6469C46.4406 32.7 48.1094 30.7531 49.5 29.0844ZM31.7 19.6281C34.2031 18.2375 40.0438 20.1844 46.1625 25.7469L47.275 26.8594C44.7719 29.3625 42.5469 32.1437 40.6 35.2031C36.9844 35.4812 33.6469 36.0375 30.3094 36.8719C30.0313 36.0375 30.0313 35.2031 29.7531 34.3687C28.0844 26.8594 29.1969 21.0187 31.7 19.6281ZM27.8063 60.5125C27.25 60.2344 26.4156 60.2344 25.8594 59.9562C21.9656 58.5656 18.9063 56.8969 16.6812 55.2281C14.7344 53.5594 13.9 51.8906 13.9 50.5C13.9 47.7188 18.0719 44.1031 25.3031 41.6C26.1375 41.3219 26.9719 41.0438 28.0844 40.7656C28.9188 44.1031 30.0313 47.4406 31.7 50.5C30.0313 53.8375 28.9188 57.175 27.8063 60.5125ZM45.8844 75.8094C42.825 78.5906 39.7656 80.2594 37.2625 81.3719C34.7594 82.2062 33.0906 82.2062 31.7 81.65C29.1969 80.2594 28.0844 74.6969 29.475 67.4656C29.7531 66.3531 30.0313 65.5187 30.0313 64.4062C33.3688 65.2406 36.9844 65.7969 40.6 65.7969C42.5469 68.5781 44.7719 71.3594 47.275 74.1406C46.7188 74.6969 46.4406 75.2531 45.8844 75.8094ZM49.5 71.9156C47.8313 70.2469 46.4406 68.3 44.7719 66.3531H53.95C52.8375 68.3 51.1688 70.2469 49.5 71.9156ZM69.8031 76.6437C69.2469 79.1469 68.4125 80.8156 67.3 81.3719C64.7969 82.7625 59.5125 80.8156 53.95 76.0875C53.3938 75.5312 52.5594 74.975 52.0031 74.4187C54.2281 71.9156 56.4531 69.1344 58.4 66.075C62.0156 65.7969 65.3531 65.2406 68.9688 64.4062C69.2469 64.9625 69.2469 65.7969 69.525 66.3531C70.3594 70.2469 70.3594 73.8625 69.8031 76.6437ZM72.5844 59.9562C72.0281 59.9562 71.75 60.2344 71.1938 60.2344C70.0813 56.8969 68.6906 53.5594 67.3 50.2219C68.6906 47.1625 70.0813 43.825 71.1938 40.4875C72.0281 40.7656 72.8625 41.0437 73.4188 41.3219C80.65 43.825 85.1 47.4406 85.1 50.2219C85.1 53.5594 80.3719 57.4531 72.5844 59.9562Z" fill="#7D7878"/>
<path d="M49.5 57.4531C50.8906 57.4531 52.2813 57.175 53.3938 56.3406C54.5063 55.5063 55.3406 54.3937 55.8969 53.2812C56.4531 51.8906 56.4531 50.5 56.175 49.1094C55.8969 47.7187 55.3406 46.6062 54.2281 45.4937C53.3938 44.3812 52.0031 43.825 50.6125 43.5469C49.2219 43.2687 47.8313 43.5469 46.4406 43.825C45.05 44.3813 43.9375 45.2156 43.3813 46.3281C42.5469 47.4406 42.2688 48.8312 42.2688 50.2219C42.2688 51.0562 42.5469 52.1687 42.825 53.0031C43.1031 53.8375 43.6594 54.6719 44.2156 55.2281C44.7719 55.7844 45.6063 56.3406 46.4406 56.6188C47.5531 57.175 48.6656 57.4531 49.5 57.4531Z" fill="#7D7878"/>
</g>
<path d="M45.68 71.77C43.16 71.77 40.8967 71.28 38.89 70.3C36.8833 69.32 35.32 67.99 34.2 66.31C33.08 64.63 32.52 62.74 32.52 60.64C32.52 58.12 33.1733 56.1367 34.48 54.69C35.7867 53.1967 37.91 52.1467 40.85 51.54C43.79 50.8867 47.6867 50.56 52.54 50.56H56.25V56.02H52.61C50.23 56.02 48.2933 56.16 46.8 56.44C45.3533 56.6733 44.3033 57.0933 43.65 57.7C43.0433 58.3067 42.74 59.1467 42.74 60.22C42.74 61.5267 43.1833 62.6 44.07 63.44C45.0033 64.28 46.3333 64.7 48.06 64.7C49.4133 64.7 50.6033 64.3967 51.63 63.79C52.7033 63.1367 53.5433 62.2733 54.15 61.2C54.7567 60.08 55.06 58.82 55.06 57.42V49.37C55.06 47.3167 54.5933 45.87 53.66 45.03C52.7267 44.1433 51.14 43.7 48.9 43.7C47.64 43.7 46.2633 43.8633 44.77 44.19C43.3233 44.47 41.7133 44.96 39.94 45.66C38.9133 46.1267 38.0033 46.2433 37.21 46.01C36.4167 45.73 35.81 45.2633 35.39 44.61C34.97 43.91 34.76 43.1633 34.76 42.37C34.76 41.53 34.9933 40.7367 35.46 39.99C35.9267 39.1967 36.6967 38.6133 37.77 38.24C39.9633 37.3533 42.0167 36.7467 43.93 36.42C45.89 36.0933 47.6867 35.93 49.32 35.93C52.9133 35.93 55.8533 36.4667 58.14 37.54C60.4733 38.5667 62.2233 40.1767 63.39 42.37C64.5567 44.5167 65.14 47.2933 65.14 50.7V66.24C65.14 67.9667 64.72 69.2967 63.88 70.23C63.04 71.1633 61.8267 71.63 60.24 71.63C58.6533 71.63 57.4167 71.1633 56.53 70.23C55.69 69.2967 55.27 67.9667 55.27 66.24V63.65L55.76 64.07C55.48 65.6567 54.8733 67.0333 53.94 68.2C53.0533 69.32 51.91 70.2067 50.51 70.86C49.11 71.4667 47.5 71.77 45.68 71.77Z" fill="white"/>
</svg>
